<svg width="27" height="26" viewBox="0 0 27 26" fill="none" xmlns="http://www.w3.org/2000/svg">
<path d="M22.5 24.9999C23.494 24.9999 24.3 24.194 24.3 23.1999C24.3 22.2058 23.494 21.3999 22.5 21.3999C21.5059 21.3999 20.7 22.2058 20.7 23.1999C20.7 24.194 21.5059 24.9999 22.5 24.9999Z" fill="black" stroke="#464F54" stroke-width="2" stroke-linecap="round" stroke-linejoin="round"/>
<path d="M10.5 24.9999C11.494 24.9999 12.3 24.194 12.3 23.1999C12.3 22.2058 11.494 21.3999 10.5 21.3999C9.50584 21.3999 8.69995 22.2058 8.69995 23.1999C8.69995 24.194 9.50584 24.9999 10.5 24.9999Z" fill="black" stroke="#464F54" stroke-width="2" stroke-linecap="round" stroke-linejoin="round"/>
<path d="M18.9 3.3999H25.5L23.1 16.5999H17.7M18.9 3.3999L17.7 16.5999M18.9 3.3999H12M17.7 16.5999H12.9M12 3.3999H5.09998L7.49998 16.5999H12.9M12 3.3999L12.9 16.5999" stroke="#464F54" stroke-width="2" stroke-linecap="round" stroke-linejoin="round"/>
<path d="M5.1 3.4C4.9 2.6 3.9 1 1.5 1" stroke="#464F54" stroke-width="2" stroke-linecap="round" stroke-linejoin="round"/>
<path d="M23.1 16.6001H7.49998H5.3769C3.23573 16.6001 2.09998 17.5375 2.09998 19.0001C2.09998 20.4627 3.23573 21.4001 5.3769 21.4001H22.5" stroke="#464F54" stroke-width="2" stroke-linecap="round" stroke-linejoin="round"/>
</svg>
