<svg width="26" height="26" viewBox="0 0 26 26" fill="none" xmlns="http://www.w3.org/2000/svg">
<path d="M22 24.9999C22.994 24.9999 23.8 24.194 23.8 23.1999C23.8 22.2058 22.994 21.3999 22 21.3999C21.0059 21.3999 20.2 22.2058 20.2 23.1999C20.2 24.194 21.0059 24.9999 22 24.9999Z" fill="#154733" stroke="#464F54" stroke-width="2" stroke-linecap="round" stroke-linejoin="round"/>
<path d="M9.99995 24.9999C10.994 24.9999 11.8 24.194 11.8 23.1999C11.8 22.2058 10.994 21.3999 9.99995 21.3999C9.00584 21.3999 8.19995 22.2058 8.19995 23.1999C8.19995 24.194 9.00584 24.9999 9.99995 24.9999Z" fill="#154733" stroke="#464F54" stroke-width="2" stroke-linecap="round" stroke-linejoin="round"/>
<path d="M18.4 3.3999H25L22.6 16.5999H17.2M18.4 3.3999L17.2 16.5999M18.4 3.3999H11.5M17.2 16.5999H12.4M11.5 3.3999H4.59998L6.99998 16.5999H12.4M11.5 3.3999L12.4 16.5999" stroke="#154733" stroke-width="2" stroke-linecap="round" stroke-linejoin="round"/>
<path d="M4.6 3.4C4.4 2.6 3.4 1 1 1" stroke="#154733" stroke-width="2" stroke-linecap="round" stroke-linejoin="round"/>
<path d="M22.6 16.6001H6.99998H4.8769C2.73573 16.6001 1.59998 17.5375 1.59998 19.0001C1.59998 20.4627 2.73573 21.4001 4.8769 21.4001H22" stroke="#154733" stroke-width="2" stroke-linecap="round" stroke-linejoin="round"/>
</svg>
