<svg width="54" height="60" viewBox="0 0 54 60" fill="none" xmlns="http://www.w3.org/2000/svg">
<path fill-rule="evenodd" clip-rule="evenodd" d="M9.85823 6.56234C13.6089 2.60065 18.6959 0.375 24.0002 0.375C29.3045 0.375 34.3915 2.60065 38.1422 6.56234C41.8929 10.524 44 15.8972 44 21.4999C44 27.1026 41.8929 32.4758 38.1422 36.4374L24.0002 51.375L9.85823 36.4374C8.00095 34.4759 6.52767 32.1471 5.52251 29.5841C4.51735 27.0211 4 24.2741 4 21.4999C4 18.7257 4.51735 15.9787 5.52251 13.4157C6.52767 10.8527 8.00095 8.52389 9.85823 6.56234ZM24.0002 27.5353C25.5156 27.5353 26.969 26.8994 28.0406 25.7675C29.1121 24.6357 29.7141 23.1006 29.7141 21.4999C29.7141 19.8992 29.1121 18.3641 28.0406 17.2322C26.969 16.1004 25.5156 15.4645 24.0002 15.4645C22.4848 15.4645 21.0314 16.1004 19.9599 17.2322C18.8883 18.3641 18.2863 19.8992 18.2863 21.4999C18.2863 23.1006 18.8883 24.6357 19.9599 25.7675C21.0314 26.8994 22.4848 27.5353 24.0002 27.5353Z" fill="url(#paint0_linear_47_11025)"/>
<defs>
<linearGradient id="paint0_linear_47_11025" x1="24" y1="0.375" x2="24" y2="51.375" gradientUnits="userSpaceOnUse">
<stop stop-color="#06572F"/>
<stop offset="1" stop-color="#1F3D35"/>
</linearGradient>
</defs>
</svg>
