<svg width="22" height="24" viewBox="0 0 22 24" fill="none" xmlns="http://www.w3.org/2000/svg">
<path fill-rule="evenodd" clip-rule="evenodd" d="M3.57557 2.91169C5.54468 1.04737 8.21537 0 11.0001 0C13.7849 0 16.4555 1.04737 18.4247 2.91169C20.3938 4.77601 21.5 7.30458 21.5 9.94113C21.5 12.5777 20.3938 15.1062 18.4247 16.9706L11.0001 24L3.57557 16.9706C2.6005 16.0475 1.82703 14.9516 1.29932 13.7455C0.771609 12.5394 0.5 11.2466 0.5 9.94113C0.5 8.63562 0.771609 7.3429 1.29932 6.13678C1.82703 4.93066 2.6005 3.83477 3.57557 2.91169V2.91169ZM11.0001 12.7813C11.7957 12.7813 12.5587 12.4821 13.1213 11.9494C13.6839 11.4168 13.9999 10.6944 13.9999 9.94113C13.9999 9.18786 13.6839 8.46545 13.1213 7.93282C12.5587 7.40018 11.7957 7.10095 11.0001 7.10095C10.2045 7.10095 9.4415 7.40018 8.87892 7.93282C8.31635 8.46545 8.0003 9.18786 8.0003 9.94113C8.0003 10.6944 8.31635 11.4168 8.87892 11.9494C9.4415 12.4821 10.2045 12.7813 11.0001 12.7813Z" fill="#154733"/>
</svg>
