<svg width="27" height="26" viewBox="0 0 27 26" fill="none" xmlns="http://www.w3.org/2000/svg">
<path d="M19.4999 13.5999C19.8312 13.5999 20.0999 13.3312 20.0999 12.9999C20.0999 12.6686 19.8312 12.3999 19.4999 12.3999C19.1686 12.3999 18.8999 12.6686 18.8999 12.9999C18.8999 13.3312 19.1686 13.5999 19.4999 13.5999Z" fill="#154733" stroke="black" stroke-width="2" stroke-linecap="round" stroke-linejoin="round"/>
<path d="M13.4999 13.5999C13.8312 13.5999 14.0999 13.3312 14.0999 12.9999C14.0999 12.6686 13.8312 12.3999 13.4999 12.3999C13.1686 12.3999 12.8999 12.6686 12.8999 12.9999C12.8999 13.3312 13.1686 13.5999 13.4999 13.5999Z" fill="#154733" stroke="black" stroke-width="2" stroke-linecap="round" stroke-linejoin="round"/>
<path d="M7.4999 13.5999C7.83127 13.5999 8.0999 13.3312 8.0999 12.9999C8.0999 12.6686 7.83127 12.3999 7.4999 12.3999C7.16853 12.3999 6.8999 12.6686 6.8999 12.9999C6.8999 13.3312 7.16853 13.5999 7.4999 13.5999Z" fill="#154733" stroke="black" stroke-width="2" stroke-linecap="round" stroke-linejoin="round"/>
<path d="M13.5 25C20.1274 25 25.5 19.6274 25.5 13C25.5 6.37258 20.1274 1 13.5 1C6.87258 1 1.5 6.37258 1.5 13C1.5 15.1857 2.08436 17.2349 3.10538 19L2.1 24.4L7.5 23.3946C9.26504 24.4156 11.3143 25 13.5 25Z" stroke="#154733" stroke-width="2" stroke-linecap="round" stroke-linejoin="round"/>
</svg>
